# Crater Terrain OBJ
v -15.000 -0.017 -15.000
v -14.000 -0.051 -15.000
v -13.000 0.076 -15.000
v -12.000 0.035 -15.000
v -11.000 0.057 -15.000
v -10.000 -0.054 -15.000
v -9.000 -0.099 -15.000
v -8.000 0.031 -15.000
v -7.000 0.072 -15.000
v -6.000 0.076 -15.000
v -5.000 0.096 -15.000
v -4.000 0.014 -15.000
v -3.000 -0.058 -15.000
v -2.000 -0.042 -15.000
v -1.000 0.012 -15.000
v 0.000 -0.009 -15.000
v 1.000 -0.010 -15.000
v 2.000 0.057 -15.000
v 3.000 -0.090 -15.000
v 4.000 0.062 -15.000
v 5.000 0.058 -15.000
v 6.000 -0.064 -15.000
v 7.000 -0.001 -15.000
v 8.000 0.006 -15.000
v 9.000 -0.036 -15.000
v 10.000 0.097 -15.000
v 11.000 0.049 -15.000
v 12.000 0.044 -15.000
v 13.000 -0.049 -15.000
v 14.000 0.053 -15.000
v 15.000 0.021 -15.000
v -15.000 0.100 -14.000
v -14.000 0.098 -14.000
v -13.000 -0.059 -14.000
v -12.000 0.064 -14.000
v -11.000 -0.064 -14.000
v -10.000 0.061 -14.000
v -9.000 -0.036 -14.000
v -8.000 -0.016 -14.000
v -7.000 0.026 -14.000
v -6.000 -0.094 -14.000
v -5.000 -0.064 -14.000
v -4.000 0.046 -14.000
v -3.000 -0.052 -14.000
v -2.000 -0.019 -14.000
v -1.000 0.093 -14.000
v 0.000 0.078 -14.000
v 1.000 0.060 -14.000
v 2.000 -0.072 -14.000
v 3.000 -0.097 -14.000
v 4.000 0.060 -14.000
v 5.000 0.080 -14.000
v 6.000 0.042 -14.000
v 7.000 0.023 -14.000
v 8.000 0.072 -14.000
v 9.000 0.048 -14.000
v 10.000 0.070 -14.000
v 11.000 -0.040 -14.000
v 12.000 -0.003 -14.000
v 13.000 -0.092 -14.000
v 14.000 0.083 -14.000
v 15.000 -0.086 -14.000
v -15.000 -0.048 -13.000
v -14.000 0.042 -13.000
v -13.000 -0.095 -13.000
v -12.000 -0.062 -13.000
v -11.000 0.075 -13.000
v -10.000 -0.092 -13.000
v -9.000 -0.044 -13.000
v -8.000 -0.047 -13.000
v -7.000 0.024 -13.000
v -6.000 -0.030 -13.000
v -5.000 0.038 -13.000
v -4.000 -0.051 -13.000
v -3.000 0.040 -13.000
v -2.000 0.119 -13.000
v -1.000 0.130 -13.000
v 0.000 0.049 -13.000
v 1.000 0.159 -13.000
v 2.000 0.141 -13.000
v 3.000 0.061 -13.000
v 4.000 0.036 -13.000
v 5.000 0.056 -13.000
v 6.000 -0.050 -13.000
v 7.000 0.058 -13.000
v 8.000 -0.056 -13.000
v 9.000 -0.066 -13.000
v 10.000 -0.052 -13.000
v 11.000 -0.035 -13.000
v 12.000 0.087 -13.000
v 13.000 -0.066 -13.000
v 14.000 -0.010 -13.000
v 15.000 0.060 -13.000
v -15.000 -0.033 -12.000
v -14.000 0.088 -12.000
v -13.000 0.006 -12.000
v -12.000 0.064 -12.000
v -11.000 -0.003 -12.000
v -10.000 -0.012 -12.000
v -9.000 -0.056 -12.000
v -8.000 0.087 -12.000
v -7.000 -0.086 -12.000
v -6.000 -0.060 -12.000
v -5.000 0.174 -12.000
v -4.000 0.253 -12.000
v -3.000 0.303 -12.000
v -2.000 0.352 -12.000
v -1.000 0.279 -12.000
v 0.000 0.208 -12.000
v 1.000 0.315 -12.000
v 2.000 0.244 -12.000
v 3.000 0.217 -12.000
v 4.000 0.107 -12.000
v 5.000 0.123 -12.000
v 6.000 -0.046 -12.000
v 7.000 -0.061 -12.000
v 8.000 0.075 -12.000
v 9.000 0.081 -12.000
v 10.000 -0.059 -12.000
v 11.000 0.017 -12.000
v 12.000 -0.057 -12.000
v 13.000 0.014 -12.000
v 14.000 0.028 -12.000
v 15.000 0.036 -12.000
v -15.000 0.070 -11.000
v -14.000 -0.021 -11.000
v -13.000 -0.078 -11.000
v -12.000 -0.011 -11.000
v -11.000 -0.098 -11.000
v -10.000 0.009 -11.000
v -9.000 -0.002 -11.000
v -8.000 0.063 -11.000
v -7.000 0.000 -11.000
v -6.000 0.224 -11.000
v -5.000 0.217 -11.000
v -4.000 0.297 -11.000
v -3.000 0.499 -11.000
v -2.000 0.468 -11.000
v -1.000 0.513 -11.000
v 0.000 0.465 -11.000
v 1.000 0.520 -11.000
v 2.000 0.484 -11.000
v 3.000 0.366 -11.000
v 4.000 0.409 -11.000
v 5.000 0.337 -11.000
v 6.000 0.112 -11.000
v 7.000 0.179 -11.000
v 8.000 -0.017 -11.000
v 9.000 0.022 -11.000
v 10.000 0.005 -11.000
v 11.000 -0.015 -11.000
v 12.000 0.011 -11.000
v 13.000 -0.096 -11.000
v 14.000 -0.028 -11.000
v 15.000 0.039 -11.000
v -15.000 0.090 -10.000
v -14.000 0.036 -10.000
v -13.000 0.091 -10.000
v -12.000 -0.076 -10.000
v -11.000 -0.090 -10.000
v -10.000 0.091 -10.000
v -9.000 -0.064 -10.000
v -8.000 0.108 -10.000
v -7.000 0.331 -10.000
v -6.000 0.348 -10.000
v -5.000 0.405 -10.000
v -4.000 0.480 -10.000
v -3.000 0.656 -10.000
v -2.000 0.601 -10.000
v -1.000 0.644 -10.000
v 0.000 0.736 -10.000
v 1.000 0.769 -10.000
v 2.000 0.754 -10.000
v 3.000 0.548 -10.000
v 4.000 0.515 -10.000
v 5.000 0.535 -10.000
v 6.000 0.461 -10.000
v 7.000 0.207 -10.000
v 8.000 0.213 -10.000
v 9.000 0.054 -10.000
v 10.000 0.097 -10.000
v 11.000 -0.050 -10.000
v 12.000 0.030 -10.000
v 13.000 0.003 -10.000
v 14.000 -0.076 -10.000
v 15.000 -0.085 -10.000
v -15.000 -0.038 -9.000
v -14.000 -0.007 -9.000
v -13.000 0.002 -9.000
v -12.000 -0.006 -9.000
v -11.000 0.077 -9.000
v -10.000 -0.041 -9.000
v -9.000 0.223 -9.000
v -8.000 0.361 -9.000
v -7.000 0.511 -9.000
v -6.000 0.593 -9.000
v -5.000 0.695 -9.000
v -4.000 0.666 -9.000
v -3.000 0.850 -9.000
v -2.000 0.769 -9.000
v -1.000 0.871 -9.000
v 0.000 0.814 -9.000
v 1.000 0.928 -9.000
v 2.000 0.764 -9.000
v 3.000 0.724 -9.000
v 4.000 0.764 -9.000
v 5.000 0.593 -9.000
v 6.000 0.469 -9.000
v 7.000 0.498 -9.000
v 8.000 0.281 -9.000
v 9.000 0.217 -9.000
v 10.000 -0.061 -9.000
v 11.000 0.006 -9.000
v 12.000 -0.041 -9.000
v 13.000 -0.065 -9.000
v 14.000 0.096 -9.000
v 15.000 0.075 -9.000
v -15.000 0.056 -8.000
v -14.000 0.069 -8.000
v -13.000 -0.004 -8.000
v -12.000 0.061 -8.000
v -11.000 -0.096 -8.000
v -10.000 0.070 -8.000
v -9.000 0.320 -8.000
v -8.000 0.376 -8.000
v -7.000 0.565 -8.000
v -6.000 0.728 -8.000
v -5.000 0.873 -8.000
v -4.000 0.917 -8.000
v -3.000 0.988 -8.000
v -2.000 1.016 -8.000
v -1.000 1.103 -8.000
v 0.000 1.045 -8.000
v 1.000 1.058 -8.000
v 2.000 0.982 -8.000
v 3.000 0.942 -8.000
v 4.000 1.005 -8.000
v 5.000 0.850 -8.000
v 6.000 0.728 -8.000
v 7.000 0.623 -8.000
v 8.000 0.493 -8.000
v 9.000 0.207 -8.000
v 10.000 0.135 -8.000
v 11.000 0.029 -8.000
v 12.000 -0.037 -8.000
v 13.000 -0.017 -8.000
v 14.000 0.047 -8.000
v 15.000 0.084 -8.000
v -15.000 -0.051 -7.000
v -14.000 -0.069 -7.000
v -13.000 0.097 -7.000
v -12.000 0.078 -7.000
v -11.000 0.020 -7.000
v -10.000 0.281 -7.000
v -9.000 0.350 -7.000
v -8.000 0.581 -7.000
v -7.000 0.689 -7.000
v -6.000 0.865 -7.000
v -5.000 1.061 -7.000
v -4.000 1.067 -7.000
v -3.000 1.187 -7.000
v -2.000 1.158 -7.000
v -1.000 1.357 -7.000
v 0.000 1.308 -7.000
v 1.000 1.295 -7.000
v 2.000 1.251 -7.000
v 3.000 1.259 -7.000
v 4.000 1.045 -7.000
v 5.000 0.971 -7.000
v 6.000 0.934 -7.000
v 7.000 0.735 -7.000
v 8.000 0.650 -7.000
v 9.000 0.363 -7.000
v 10.000 0.245 -7.000
v 11.000 0.081 -7.000
v 12.000 -0.024 -7.000
v 13.000 0.044 -7.000
v 14.000 0.041 -7.000
v 15.000 0.077 -7.000
v -15.000 0.064 -6.000
v -14.000 0.062 -6.000
v -13.000 -0.012 -6.000
v -12.000 0.044 -6.000
v -11.000 0.217 -6.000
v -10.000 0.383 -6.000
v -9.000 0.553 -6.000
v -8.000 0.641 -6.000
v -7.000 0.910 -6.000
v -6.000 1.002 -6.000
v -5.000 1.046 -6.000
v -4.000 1.178 -6.000
v -3.000 1.323 -6.000
v -2.000 1.425 -6.000
v -1.000 1.496 -6.000
v 0.000 1.424 -6.000
v 1.000 1.410 -6.000
v 2.000 1.493 -6.000
v 3.000 1.327 -6.000
v 4.000 1.187 -6.000
v 5.000 1.048 -6.000
v 6.000 0.914 -6.000
v 7.000 0.876 -6.000
v 8.000 0.775 -6.000
v 9.000 0.579 -6.000
v 10.000 0.419 -6.000
v 11.000 0.252 -6.000
v 12.000 -0.080 -6.000
v 13.000 0.016 -6.000
v 14.000 0.099 -6.000
v 15.000 -0.076 -6.000
v -15.000 -0.074 -5.000
v -14.000 0.075 -5.000
v -13.000 -0.089 -5.000
v -12.000 0.065 -5.000
v -11.000 0.299 -5.000
v -10.000 0.479 -5.000
v -9.000 0.547 -5.000
v -8.000 0.899 -5.000
v -7.000 1.009 -5.000
v -6.000 1.227 -5.000
v -5.000 1.296 -5.000
v -4.000 1.475 -5.000
v -3.000 0.025 -5.000
v -2.000 1.145 -5.000
v -1.000 1.476 -5.000
v 0.000 1.500 -5.000
v 1.000 1.476 -5.000
v 2.000 1.145 -5.000
v 3.000 0.025 -5.000
v 4.000 1.356 -5.000
v 5.000 1.203 -5.000
v 6.000 1.130 -5.000
v 7.000 0.890 -5.000
v 8.000 0.788 -5.000
v 9.000 0.630 -5.000
v 10.000 0.405 -5.000
v 11.000 0.383 -5.000
v 12.000 0.006 -5.000
v 13.000 0.061 -5.000
v 14.000 -0.024 -5.000
v 15.000 0.026 -5.000
v -15.000 -0.027 -4.000
v -14.000 0.010 -4.000
v -13.000 0.086 -4.000
v -12.000 0.143 -4.000
v -11.000 0.281 -4.000
v -10.000 0.543 -4.000
v -9.000 0.645 -4.000
v -8.000 0.983 -4.000
v -7.000 1.020 -4.000
v -6.000 1.271 -4.000
v -5.000 1.390 -4.000
v -4.000 0.527 -4.000
v -3.000 1.500 -4.000
v -2.000 0.851 -4.000
v -1.000 -0.116 -4.000
v 0.000 -0.500 -4.000
v 1.000 -0.116 -4.000
v 2.000 0.851 -4.000
v 3.000 1.500 -4.000
v 4.000 0.527 -4.000
v 5.000 1.323 -4.000
v 6.000 1.248 -4.000
v 7.000 1.068 -4.000
v 8.000 0.947 -4.000
v 9.000 0.671 -4.000
v 10.000 0.563 -4.000
v 11.000 0.330 -4.000
v 12.000 0.119 -4.000
v 13.000 0.062 -4.000
v 14.000 -0.011 -4.000
v 15.000 -0.072 -4.000
v -15.000 0.072 -3.000
v -14.000 -0.009 -3.000
v -13.000 -0.002 -3.000
v -12.000 0.207 -3.000
v -11.000 0.324 -3.000
v -10.000 0.583 -3.000
v -9.000 0.762 -3.000
v -8.000 1.023 -3.000
v -7.000 1.271 -3.000
v -6.000 1.451 -3.000
v -5.000 0.025 -3.000
v -4.000 1.500 -3.000
v -3.000 0.244 -3.000
v -2.000 -0.600 -3.000
v -1.000 -1.200 -3.000
v 0.000 -1.400 -3.000
v 1.000 -1.200 -3.000
v 2.000 -0.600 -3.000
v 3.000 0.244 -3.000
v 4.000 1.500 -3.000
v 5.000 0.025 -3.000
v 6.000 1.352 -3.000
v 7.000 1.141 -3.000
v 8.000 1.016 -3.000
v 9.000 0.835 -3.000
v 10.000 0.581 -3.000
v 11.000 0.429 -3.000
v 12.000 0.274 -3.000
v 13.000 0.112 -3.000
v 14.000 0.022 -3.000
v 15.000 0.061 -3.000
v -15.000 0.065 -2.000
v -14.000 0.083 -2.000
v -13.000 0.052 -2.000
v -12.000 0.302 -2.000
v -11.000 0.484 -2.000
v -10.000 0.641 -2.000
v -9.000 0.819 -2.000
v -8.000 1.146 -2.000
v -7.000 1.304 -2.000
v -6.000 1.369 -2.000
v -5.000 1.145 -2.000
v -4.000 0.851 -2.000
v -3.000 -0.600 -2.000
v -2.000 -1.600 -2.000
v -1.000 -2.200 -2.000
v 0.000 -2.400 -2.000
v 1.000 -2.200 -2.000
v 2.000 -1.600 -2.000
v 3.000 -0.600 -2.000
v 4.000 0.851 -2.000
v 5.000 1.145 -2.000
v 6.000 1.463 -2.000
v 7.000 1.241 -2.000
v 8.000 1.137 -2.000
v 9.000 0.826 -2.000
v 10.000 0.588 -2.000
v 11.000 0.519 -2.000
v 12.000 0.249 -2.000
v 13.000 0.096 -2.000
v 14.000 -0.071 -2.000
v 15.000 -0.079 -2.000
v -15.000 0.038 -1.000
v -14.000 -0.061 -1.000
v -13.000 0.163 -1.000
v -12.000 0.314 -1.000
v -11.000 0.416 -1.000
v -10.000 0.657 -1.000
v -9.000 0.943 -1.000
v -8.000 0.991 -1.000
v -7.000 1.352 -1.000
v -6.000 1.481 -1.000
v -5.000 1.476 -1.000
v -4.000 -0.116 -1.000
v -3.000 -1.200 -1.000
v -2.000 -2.200 -1.000
v -1.000 -2.800 -1.000
v 0.000 -3.000 -1.000
v 1.000 -2.800 -1.000
v 2.000 -2.200 -1.000
v 3.000 -1.200 -1.000
v 4.000 -0.116 -1.000
v 5.000 1.476 -1.000
v 6.000 1.542 -1.000
v 7.000 1.321 -1.000
v 8.000 1.117 -1.000
v 9.000 0.946 -1.000
v 10.000 0.633 -1.000
v 11.000 0.395 -1.000
v 12.000 0.266 -1.000
v 13.000 0.125 -1.000
v 14.000 -0.039 -1.000
v 15.000 -0.009 -1.000
v -15.000 -0.050 0.000
v -14.000 -0.080 0.000
v -13.000 0.107 0.000
v -12.000 0.209 0.000
v -11.000 0.463 0.000
v -10.000 0.660 0.000
v -9.000 0.802 0.000
v -8.000 1.054 0.000
v -7.000 1.397 0.000
v -6.000 1.468 0.000
v -5.000 1.500 0.000
v -4.000 -0.500 0.000
v -3.000 -1.400 0.000
v -2.000 -2.400 0.000
v -1.000 -3.000 0.000
v 0.000 -3.200 0.000
v 1.000 -3.000 0.000
v 2.000 -2.400 0.000
v 3.000 -1.400 0.000
v 4.000 -0.000 0.000
v 5.000 1.500 0.000
v 6.000 -0.500 0.000
v 7.000 1.294 0.000
v 8.000 1.121 0.000
v 9.000 0.915 0.000
v 10.000 0.644 0.000
v 11.000 0.527 0.000
v 12.000 0.237 0.000
v 13.000 0.044 0.000
v 14.000 0.016 0.000
v 15.000 -0.008 0.000
v -15.000 0.027 1.000
v -14.000 -0.099 1.000
v -13.000 0.159 1.000
v -12.000 0.201 1.000
v -11.000 0.544 1.000
v -10.000 0.756 1.000
v -9.000 0.900 1.000
v -8.000 1.076 1.000
v -7.000 1.195 1.000
v -6.000 1.519 1.000
v -5.000 1.476 1.000
v -4.000 -0.116 1.000
v -3.000 -1.200 1.000
v -2.000 -2.200 1.000
v -1.000 -2.800 1.000
v 0.000 -3.000 1.000
v 1.000 -2.800 1.000
v 2.000 -2.200 1.000
v 3.000 -1.200 1.000
v 4.000 -0.116 1.000
v 5.000 1.476 1.000
v 6.000 1.550 1.000
v 7.000 1.258 1.000
v 8.000 1.006 1.000
v 9.000 0.805 1.000
v 10.000 0.736 1.000
v 11.000 0.582 1.000
v 12.000 0.361 1.000
v 13.000 0.134 1.000
v 14.000 0.077 1.000
v 15.000 0.025 1.000
v -15.000 0.087 2.000
v -14.000 -0.028 2.000
v -13.000 0.162 2.000
v -12.000 0.194 2.000
v -11.000 0.409 2.000
v -10.000 0.646 2.000
v -9.000 0.821 2.000
v -8.000 1.042 2.000
v -7.000 1.286 2.000
v -6.000 1.389 2.000
v -5.000 1.145 2.000
v -4.000 0.851 2.000
v -3.000 -0.600 2.000
v -2.000 -1.600 2.000
v -1.000 -2.200 2.000
v 0.000 -2.400 2.000
v 1.000 -2.200 2.000
v 2.000 -1.600 2.000
v 3.000 -0.600 2.000
v 4.000 0.851 2.000
v 5.000 1.145 2.000
v 6.000 1.339 2.000
v 7.000 1.340 2.000
v 8.000 1.026 2.000
v 9.000 0.860 2.000
v 10.000 0.573 2.000
v 11.000 0.517 2.000
v 12.000 0.365 2.000
v 13.000 0.073 2.000
v 14.000 -0.084 2.000
v 15.000 -0.099 2.000
v -15.000 -0.024 3.000
v -14.000 -0.009 3.000
v -13.000 0.004 3.000
v -12.000 0.308 3.000
v -11.000 0.500 3.000
v -10.000 0.677 3.000
v -9.000 0.856 3.000
v -8.000 1.023 3.000
v -7.000 1.078 3.000
v -6.000 1.336 3.000
v -5.000 0.025 3.000
v -4.000 1.500 3.000
v -3.000 0.244 3.000
v -2.000 -0.600 3.000
v -1.000 -1.200 3.000
v 0.000 -1.400 3.000
v 1.000 -1.200 3.000
v 2.000 -0.600 3.000
v 3.000 0.244 3.000
v 4.000 1.500 3.000
v 5.000 0.025 3.000
v 6.000 1.348 3.000
v 7.000 1.109 3.000
v 8.000 0.948 3.000
v 9.000 0.726 3.000
v 10.000 0.573 3.000
v 11.000 0.432 3.000
v 12.000 0.243 3.000
v 13.000 0.030 3.000
v 14.000 0.082 3.000
v 15.000 -0.010 3.000
v -15.000 0.072 4.000
v -14.000 -0.067 4.000
v -13.000 -0.065 4.000
v -12.000 0.188 4.000
v -11.000 0.284 4.000
v -10.000 0.532 4.000
v -9.000 0.798 4.000
v -8.000 0.942 4.000
v -7.000 1.101 4.000
v -6.000 1.238 4.000
v -5.000 1.492 4.000
v -4.000 0.527 4.000
v -3.000 1.500 4.000
v -2.000 0.851 4.000
v -1.000 -0.116 4.000
v 0.000 -0.000 4.000
v 1.000 -0.116 4.000
v 2.000 0.851 4.000
v 3.000 1.500 4.000
v 4.000 0.527 4.000
v 5.000 1.349 4.000
v 6.000 1.324 4.000
v 7.000 1.025 4.000
v 8.000 1.003 4.000
v 9.000 0.741 4.000
v 10.000 0.607 4.000
v 11.000 0.455 4.000
v 12.000 0.184 4.000
v 13.000 0.055 4.000
v 14.000 0.067 4.000
v 15.000 0.025 4.000
v -15.000 0.022 5.000
v -14.000 0.077 5.000
v -13.000 0.028 5.000
v -12.000 0.194 5.000
v -11.000 0.320 5.000
v -10.000 0.538 5.000
v -9.000 0.637 5.000
v -8.000 0.831 5.000
v -7.000 0.891 5.000
v -6.000 1.201 5.000
v -5.000 1.198 5.000
v -4.000 1.479 5.000
v -3.000 0.025 5.000
v -2.000 1.145 5.000
v -1.000 1.476 5.000
v 0.000 1.500 5.000
v 1.000 1.476 5.000
v 2.000 1.145 5.000
v 3.000 0.025 5.000
v 4.000 1.507 5.000
v 5.000 1.356 5.000
v 6.000 1.174 5.000
v 7.000 1.062 5.000
v 8.000 0.840 5.000
v 9.000 0.718 5.000
v 10.000 0.496 5.000
v 11.000 0.268 5.000
v 12.000 0.187 5.000
v 13.000 0.034 5.000
v 14.000 0.034 5.000
v 15.000 0.011 5.000
v -15.000 -0.013 6.000
v -14.000 -0.085 6.000
v -13.000 0.003 6.000
v -12.000 0.090 6.000
v -11.000 0.275 6.000
v -10.000 0.292 6.000
v -9.000 0.521 6.000
v -8.000 0.645 6.000
v -7.000 0.882 6.000
v -6.000 1.094 6.000
v -5.000 1.237 6.000
v -4.000 1.331 6.000
v -3.000 1.401 6.000
v -2.000 1.440 6.000
v -1.000 1.543 6.000
v 0.000 -0.500 6.000
v 1.000 1.536 6.000
v 2.000 1.379 6.000
v 3.000 1.313 6.000
v 4.000 1.339 6.000
v 5.000 1.123 6.000
v 6.000 0.908 6.000
v 7.000 0.899 6.000
v 8.000 0.717 6.000
v 9.000 0.579 6.000
v 10.000 0.351 6.000
v 11.000 0.203 6.000
v 12.000 0.032 6.000
v 13.000 -0.092 6.000
v 14.000 0.061 6.000
v 15.000 0.096 6.000
v -15.000 0.085 7.000
v -14.000 -0.006 7.000
v -13.000 -0.007 7.000
v -12.000 0.028 7.000
v -11.000 0.045 7.000
v -10.000 0.175 7.000
v -9.000 0.324 7.000
v -8.000 0.619 7.000
v -7.000 0.718 7.000
v -6.000 0.876 7.000
v -5.000 1.033 7.000
v -4.000 1.042 7.000
v -3.000 1.122 7.000
v -2.000 1.173 7.000
v -1.000 1.212 7.000
v 0.000 1.254 7.000
v 1.000 1.366 7.000
v 2.000 1.308 7.000
v 3.000 1.113 7.000
v 4.000 0.998 7.000
v 5.000 1.043 7.000
v 6.000 0.912 7.000
v 7.000 0.789 7.000
v 8.000 0.631 7.000
v 9.000 0.365 7.000
v 10.000 0.315 7.000
v 11.000 0.083 7.000
v 12.000 0.005 7.000
v 13.000 0.046 7.000
v 14.000 -0.070 7.000
v 15.000 0.009 7.000
v -15.000 -0.024 8.000
v -14.000 -0.098 8.000
v -13.000 -0.044 8.000
v -12.000 -0.015 8.000
v -11.000 0.052 8.000
v -10.000 0.131 8.000
v -9.000 0.341 8.000
v -8.000 0.415 8.000
v -7.000 0.654 8.000
v -6.000 0.742 8.000
v -5.000 0.813 8.000
v -4.000 0.927 8.000
v -3.000 0.901 8.000
v -2.000 1.114 8.000
v -1.000 1.147 8.000
v 0.000 1.163 8.000
v 1.000 1.038 8.000
v 2.000 0.995 8.000
v 3.000 1.060 8.000
v 4.000 0.902 8.000
v 5.000 0.726 8.000
v 6.000 0.799 8.000
v 7.000 0.486 8.000
v 8.000 0.383 8.000
v 9.000 0.325 8.000
v 10.000 0.110 8.000
v 11.000 0.017 8.000
v 12.000 0.051 8.000
v 13.000 -0.082 8.000
v 14.000 -0.089 8.000
v 15.000 -0.024 8.000
v -15.000 -0.016 9.000
v -14.000 0.032 9.000
v -13.000 -0.000 9.000
v -12.000 -0.021 9.000
v -11.000 -0.012 9.000
v -10.000 0.002 9.000
v -9.000 0.065 9.000
v -8.000 0.238 9.000
v -7.000 0.427 9.000
v -6.000 0.593 9.000
v -5.000 0.558 9.000
v -4.000 0.753 9.000
v -3.000 0.745 9.000
v -2.000 0.833 9.000
v -1.000 0.824 9.000
v 0.000 0.981 9.000
v 1.000 0.936 9.000
v 2.000 0.819 9.000
v 3.000 0.746 9.000
v 4.000 0.769 9.000
v 5.000 0.642 9.000
v 6.000 0.619 9.000
v 7.000 0.320 9.000
v 8.000 0.372 9.000
v 9.000 0.064 9.000
v 10.000 0.067 9.000
v 11.000 0.088 9.000
v 12.000 0.033 9.000
v 13.000 -0.009 9.000
v 14.000 -0.054 9.000
v 15.000 0.049 9.000
v -15.000 0.014 10.000
v -14.000 -0.095 10.000
v -13.000 0.070 10.000
v -12.000 0.038 10.000
v -11.000 -0.003 10.000
v -10.000 0.029 10.000
v -9.000 -0.011 10.000
v -8.000 0.109 10.000
v -7.000 0.204 10.000
v -6.000 0.329 10.000
v -5.000 0.400 10.000
v -4.000 0.502 10.000
v -3.000 0.617 10.000
v -2.000 0.637 10.000
v -1.000 0.710 10.000
v 0.000 0.661 10.000
v 1.000 0.667 10.000
v 2.000 0.735 10.000
v 3.000 0.657 10.000
v 4.000 0.471 10.000
v 5.000 0.546 10.000
v 6.000 0.317 10.000
v 7.000 0.204 10.000
v 8.000 0.219 10.000
v 9.000 -0.023 10.000
v 10.000 -0.052 10.000
v 11.000 0.081 10.000
v 12.000 0.005 10.000
v 13.000 0.038 10.000
v 14.000 -0.026 10.000
v 15.000 -0.022 10.000
v -15.000 -0.008 11.000
v -14.000 0.012 11.000
v -13.000 -0.027 11.000
v -12.000 -0.091 11.000
v -11.000 -0.042 11.000
v -10.000 -0.057 11.000
v -9.000 0.024 11.000
v -8.000 0.044 11.000
v -7.000 0.026 11.000
v -6.000 0.098 11.000
v -5.000 0.220 11.000
v -4.000 0.353 11.000
v -3.000 0.354 11.000
v -2.000 0.489 11.000
v -1.000 0.415 11.000
v 0.000 0.485 11.000
v 1.000 0.485 11.000
v 2.000 0.532 11.000
v 3.000 0.465 11.000
v 4.000 0.449 11.000
v 5.000 0.221 11.000
v 6.000 0.109 11.000
v 7.000 0.139 11.000
v 8.000 -0.004 11.000
v 9.000 -0.008 11.000
v 10.000 0.030 11.000
v 11.000 0.082 11.000
v 12.000 -0.036 11.000
v 13.000 -0.057 11.000
v 14.000 -0.066 11.000
v 15.000 -0.033 11.000
v -15.000 0.067 12.000
v -14.000 0.054 12.000
v -13.000 0.055 12.000
v -12.000 -0.052 12.000
v -11.000 0.061 12.000
v -10.000 0.095 12.000
v -9.000 0.059 12.000
v -8.000 -0.065 12.000
v -7.000 0.071 12.000
v -6.000 0.052 12.000
v -5.000 0.133 12.000
v -4.000 0.229 12.000
v -3.000 0.195 12.000
v -2.000 0.201 12.000
v -1.000 0.232 12.000
v 0.000 0.239 12.000
v 1.000 0.307 12.000
v 2.000 0.330 12.000
v 3.000 0.235 12.000
v 4.000 0.247 12.000
v 5.000 0.087 12.000
v 6.000 -0.071 12.000
v 7.000 -0.072 12.000
v 8.000 -0.094 12.000
v 9.000 -0.085 12.000
v 10.000 -0.065 12.000
v 11.000 -0.046 12.000
v 12.000 0.097 12.000
v 13.000 -0.050 12.000
v 14.000 -0.082 12.000
v 15.000 0.094 12.000
v -15.000 0.016 13.000
v -14.000 -0.084 13.000
v -13.000 0.087 13.000
v -12.000 -0.041 13.000
v -11.000 0.052 13.000
v -10.000 -0.089 13.000
v -9.000 0.013 13.000
v -8.000 0.064 13.000
v -7.000 0.004 13.000
v -6.000 -0.027 13.000
v -5.000 0.032 13.000
v -4.000 -0.025 13.000
v -3.000 0.024 13.000
v -2.000 0.021 13.000
v -1.000 0.118 13.000
v 0.000 0.033 13.000
v 1.000 0.098 13.000
v 2.000 0.028 13.000
v 3.000 0.089 13.000
v 4.000 0.071 13.000
v 5.000 0.025 13.000
v 6.000 -0.084 13.000
v 7.000 0.075 13.000
v 8.000 0.006 13.000
v 9.000 -0.037 13.000
v 10.000 0.050 13.000
v 11.000 0.071 13.000
v 12.000 -0.014 13.000
v 13.000 -0.050 13.000
v 14.000 -0.080 13.000
v 15.000 0.083 13.000
v -15.000 0.009 14.000
v -14.000 0.069 14.000
v -13.000 -0.000 14.000
v -12.000 0.042 14.000
v -11.000 -0.096 14.000
v -10.000 -0.045 14.000
v -9.000 -0.039 14.000
v -8.000 0.019 14.000
v -7.000 0.005 14.000
v -6.000 0.072 14.000
v -5.000 0.017 14.000
v -4.000 0.062 14.000
v -3.000 -0.004 14.000
v -2.000 0.032 14.000
v -1.000 -0.059 14.000
v 0.000 0.100 14.000
v 1.000 0.038 14.000
v 2.000 0.027 14.000
v 3.000 -0.066 14.000
v 4.000 0.049 14.000
v 5.000 0.045 14.000
v 6.000 -0.031 14.000
v 7.000 0.096 14.000
v 8.000 0.080 14.000
v 9.000 0.033 14.000
v 10.000 0.042 14.000
v 11.000 -0.013 14.000
v 12.000 -0.074 14.000
v 13.000 -0.070 14.000
v 14.000 -0.041 14.000
v 15.000 0.068 14.000
v -15.000 -0.049 15.000
v -14.000 0.086 15.000
v -13.000 -0.047 15.000
v -12.000 -0.032 15.000
v -11.000 -0.066 15.000
v -10.000 0.081 15.000
v -9.000 -0.100 15.000
v -8.000 0.095 15.000
v -7.000 -0.008 15.000
v -6.000 0.015 15.000
v -5.000 0.025 15.000
v -4.000 0.067 15.000
v -3.000 -0.076 15.000
v -2.000 0.029 15.000
v -1.000 0.018 15.000
v 0.000 0.013 15.000
v 1.000 0.056 15.000
v 2.000 -0.041 15.000
v 3.000 0.016 15.000
v 4.000 -0.071 15.000
v 5.000 0.069 15.000
v 6.000 -0.040 15.000
v 7.000 0.009 15.000
v 8.000 0.045 15.000
v 9.000 -0.082 15.000
v 10.000 0.085 15.000
v 11.000 0.098 15.000
v 12.000 -0.039 15.000
v 13.000 -0.037 15.000
v 14.000 0.077 15.000
v 15.000 0.087 15.000
f 1 32 2
f 2 32 33
f 2 33 3
f 3 33 34
f 3 34 4
f 4 34 35
f 4 35 5
f 5 35 36
f 5 36 6
f 6 36 37
f 6 37 7
f 7 37 38
f 7 38 8
f 8 38 39
f 8 39 9
f 9 39 40
f 9 40 10
f 10 40 41
f 10 41 11
f 11 41 42
f 11 42 12
f 12 42 43
f 12 43 13
f 13 43 44
f 13 44 14
f 14 44 45
f 14 45 15
f 15 45 46
f 15 46 16
f 16 46 47
f 16 47 17
f 17 47 48
f 17 48 18
f 18 48 49
f 18 49 19
f 19 49 50
f 19 50 20
f 20 50 51
f 20 51 21
f 21 51 52
f 21 52 22
f 22 52 53
f 22 53 23
f 23 53 54
f 23 54 24
f 24 54 55
f 24 55 25
f 25 55 56
f 25 56 26
f 26 56 57
f 26 57 27
f 27 57 58
f 27 58 28
f 28 58 59
f 28 59 29
f 29 59 60
f 29 60 30
f 30 60 61
f 30 61 31
f 31 61 62
f 32 63 33
f 33 63 64
f 33 64 34
f 34 64 65
f 34 65 35
f 35 65 66
f 35 66 36
f 36 66 67
f 36 67 37
f 37 67 68
f 37 68 38
f 38 68 69
f 38 69 39
f 39 69 70
f 39 70 40
f 40 70 71
f 40 71 41
f 41 71 72
f 41 72 42
f 42 72 73
f 42 73 43
f 43 73 74
f 43 74 44
f 44 74 75
f 44 75 45
f 45 75 76
f 45 76 46
f 46 76 77
f 46 77 47
f 47 77 78
f 47 78 48
f 48 78 79
f 48 79 49
f 49 79 80
f 49 80 50
f 50 80 81
f 50 81 51
f 51 81 82
f 51 82 52
f 52 82 83
f 52 83 53
f 53 83 84
f 53 84 54
f 54 84 85
f 54 85 55
f 55 85 86
f 55 86 56
f 56 86 87
f 56 87 57
f 57 87 88
f 57 88 58
f 58 88 89
f 58 89 59
f 59 89 90
f 59 90 60
f 60 90 91
f 60 91 61
f 61 91 92
f 61 92 62
f 62 92 93
f 63 94 64
f 64 94 95
f 64 95 65
f 65 95 96
f 65 96 66
f 66 96 97
f 66 97 67
f 67 97 98
f 67 98 68
f 68 98 99
f 68 99 69
f 69 99 100
f 69 100 70
f 70 100 101
f 70 101 71
f 71 101 102
f 71 102 72
f 72 102 103
f 72 103 73
f 73 103 104
f 73 104 74
f 74 104 105
f 74 105 75
f 75 105 106
f 75 106 76
f 76 106 107
f 76 107 77
f 77 107 108
f 77 108 78
f 78 108 109
f 78 109 79
f 79 109 110
f 79 110 80
f 80 110 111
f 80 111 81
f 81 111 112
f 81 112 82
f 82 112 113
f 82 113 83
f 83 113 114
f 83 114 84
f 84 114 115
f 84 115 85
f 85 115 116
f 85 116 86
f 86 116 117
f 86 117 87
f 87 117 118
f 87 118 88
f 88 118 119
f 88 119 89
f 89 119 120
f 89 120 90
f 90 120 121
f 90 121 91
f 91 121 122
f 91 122 92
f 92 122 123
f 92 123 93
f 93 123 124
f 94 125 95
f 95 125 126
f 95 126 96
f 96 126 127
f 96 127 97
f 97 127 128
f 97 128 98
f 98 128 129
f 98 129 99
f 99 129 130
f 99 130 100
f 100 130 131
f 100 131 101
f 101 131 132
f 101 132 102
f 102 132 133
f 102 133 103
f 103 133 134
f 103 134 104
f 104 134 135
f 104 135 105
f 105 135 136
f 105 136 106
f 106 136 137
f 106 137 107
f 107 137 138
f 107 138 108
f 108 138 139
f 108 139 109
f 109 139 140
f 109 140 110
f 110 140 141
f 110 141 111
f 111 141 142
f 111 142 112
f 112 142 143
f 112 143 113
f 113 143 144
f 113 144 114
f 114 144 145
f 114 145 115
f 115 145 146
f 115 146 116
f 116 146 147
f 116 147 117
f 117 147 148
f 117 148 118
f 118 148 149
f 118 149 119
f 119 149 150
f 119 150 120
f 120 150 151
f 120 151 121
f 121 151 152
f 121 152 122
f 122 152 153
f 122 153 123
f 123 153 154
f 123 154 124
f 124 154 155
f 125 156 126
f 126 156 157
f 126 157 127
f 127 157 158
f 127 158 128
f 128 158 159
f 128 159 129
f 129 159 160
f 129 160 130
f 130 160 161
f 130 161 131
f 131 161 162
f 131 162 132
f 132 162 163
f 132 163 133
f 133 163 164
f 133 164 134
f 134 164 165
f 134 165 135
f 135 165 166
f 135 166 136
f 136 166 167
f 136 167 137
f 137 167 168
f 137 168 138
f 138 168 169
f 138 169 139
f 139 169 170
f 139 170 140
f 140 170 171
f 140 171 141
f 141 171 172
f 141 172 142
f 142 172 173
f 142 173 143
f 143 173 174
f 143 174 144
f 144 174 175
f 144 175 145
f 145 175 176
f 145 176 146
f 146 176 177
f 146 177 147
f 147 177 178
f 147 178 148
f 148 178 179
f 148 179 149
f 149 179 180
f 149 180 150
f 150 180 181
f 150 181 151
f 151 181 182
f 151 182 152
f 152 182 183
f 152 183 153
f 153 183 184
f 153 184 154
f 154 184 185
f 154 185 155
f 155 185 186
f 156 187 157
f 157 187 188
f 157 188 158
f 158 188 189
f 158 189 159
f 159 189 190
f 159 190 160
f 160 190 191
f 160 191 161
f 161 191 192
f 161 192 162
f 162 192 193
f 162 193 163
f 163 193 194
f 163 194 164
f 164 194 195
f 164 195 165
f 165 195 196
f 165 196 166
f 166 196 197
f 166 197 167
f 167 197 198
f 167 198 168
f 168 198 199
f 168 199 169
f 169 199 200
f 169 200 170
f 170 200 201
f 170 201 171
f 171 201 202
f 171 202 172
f 172 202 203
f 172 203 173
f 173 203 204
f 173 204 174
f 174 204 205
f 174 205 175
f 175 205 206
f 175 206 176
f 176 206 207
f 176 207 177
f 177 207 208
f 177 208 178
f 178 208 209
f 178 209 179
f 179 209 210
f 179 210 180
f 180 210 211
f 180 211 181
f 181 211 212
f 181 212 182
f 182 212 213
f 182 213 183
f 183 213 214
f 183 214 184
f 184 214 215
f 184 215 185
f 185 215 216
f 185 216 186
f 186 216 217
f 187 218 188
f 188 218 219
f 188 219 189
f 189 219 220
f 189 220 190
f 190 220 221
f 190 221 191
f 191 221 222
f 191 222 192
f 192 222 223
f 192 223 193
f 193 223 224
f 193 224 194
f 194 224 225
f 194 225 195
f 195 225 226
f 195 226 196
f 196 226 227
f 196 227 197
f 197 227 228
f 197 228 198
f 198 228 229
f 198 229 199
f 199 229 230
f 199 230 200
f 200 230 231
f 200 231 201
f 201 231 232
f 201 232 202
f 202 232 233
f 202 233 203
f 203 233 234
f 203 234 204
f 204 234 235
f 204 235 205
f 205 235 236
f 205 236 206
f 206 236 237
f 206 237 207
f 207 237 238
f 207 238 208
f 208 238 239
f 208 239 209
f 209 239 240
f 209 240 210
f 210 240 241
f 210 241 211
f 211 241 242
f 211 242 212
f 212 242 243
f 212 243 213
f 213 243 244
f 213 244 214
f 214 244 245
f 214 245 215
f 215 245 246
f 215 246 216
f 216 246 247
f 216 247 217
f 217 247 248
f 218 249 219
f 219 249 250
f 219 250 220
f 220 250 251
f 220 251 221
f 221 251 252
f 221 252 222
f 222 252 253
f 222 253 223
f 223 253 254
f 223 254 224
f 224 254 255
f 224 255 225
f 225 255 256
f 225 256 226
f 226 256 257
f 226 257 227
f 227 257 258
f 227 258 228
f 228 258 259
f 228 259 229
f 229 259 260
f 229 260 230
f 230 260 261
f 230 261 231
f 231 261 262
f 231 262 232
f 232 262 263
f 232 263 233
f 233 263 264
f 233 264 234
f 234 264 265
f 234 265 235
f 235 265 266
f 235 266 236
f 236 266 267
f 236 267 237
f 237 267 268
f 237 268 238
f 238 268 269
f 238 269 239
f 239 269 270
f 239 270 240
f 240 270 271
f 240 271 241
f 241 271 272
f 241 272 242
f 242 272 273
f 242 273 243
f 243 273 274
f 243 274 244
f 244 274 275
f 244 275 245
f 245 275 276
f 245 276 246
f 246 276 277
f 246 277 247
f 247 277 278
f 247 278 248
f 248 278 279
f 249 280 250
f 250 280 281
f 250 281 251
f 251 281 282
f 251 282 252
f 252 282 283
f 252 283 253
f 253 283 284
f 253 284 254
f 254 284 285
f 254 285 255
f 255 285 286
f 255 286 256
f 256 286 287
f 256 287 257
f 257 287 288
f 257 288 258
f 258 288 289
f 258 289 259
f 259 289 290
f 259 290 260
f 260 290 291
f 260 291 261
f 261 291 292
f 261 292 262
f 262 292 293
f 262 293 263
f 263 293 294
f 263 294 264
f 264 294 295
f 264 295 265
f 265 295 296
f 265 296 266
f 266 296 297
f 266 297 267
f 267 297 298
f 267 298 268
f 268 298 299
f 268 299 269
f 269 299 300
f 269 300 270
f 270 300 301
f 270 301 271
f 271 301 302
f 271 302 272
f 272 302 303
f 272 303 273
f 273 303 304
f 273 304 274
f 274 304 305
f 274 305 275
f 275 305 306
f 275 306 276
f 276 306 307
f 276 307 277
f 277 307 308
f 277 308 278
f 278 308 309
f 278 309 279
f 279 309 310
f 280 311 281
f 281 311 312
f 281 312 282
f 282 312 313
f 282 313 283
f 283 313 314
f 283 314 284
f 284 314 315
f 284 315 285
f 285 315 316
f 285 316 286
f 286 316 317
f 286 317 287
f 287 317 318
f 287 318 288
f 288 318 319
f 288 319 289
f 289 319 320
f 289 320 290
f 290 320 321
f 290 321 291
f 291 321 322
f 291 322 292
f 292 322 323
f 292 323 293
f 293 323 324
f 293 324 294
f 294 324 325
f 294 325 295
f 295 325 326
f 295 326 296
f 296 326 327
f 296 327 297
f 297 327 328
f 297 328 298
f 298 328 329
f 298 329 299
f 299 329 330
f 299 330 300
f 300 330 331
f 300 331 301
f 301 331 332
f 301 332 302
f 302 332 333
f 302 333 303
f 303 333 334
f 303 334 304
f 304 334 335
f 304 335 305
f 305 335 336
f 305 336 306
f 306 336 337
f 306 337 307
f 307 337 338
f 307 338 308
f 308 338 339
f 308 339 309
f 309 339 340
f 309 340 310
f 310 340 341
f 311 342 312
f 312 342 343
f 312 343 313
f 313 343 344
f 313 344 314
f 314 344 345
f 314 345 315
f 315 345 346
f 315 346 316
f 316 346 347
f 316 347 317
f 317 347 348
f 317 348 318
f 318 348 349
f 318 349 319
f 319 349 350
f 319 350 320
f 320 350 351
f 320 351 321
f 321 351 352
f 321 352 322
f 322 352 353
f 322 353 323
f 323 353 354
f 323 354 324
f 324 354 355
f 324 355 325
f 325 355 356
f 325 356 326
f 326 356 357
f 326 357 327
f 327 357 358
f 327 358 328
f 328 358 359
f 328 359 329
f 329 359 360
f 329 360 330
f 330 360 361
f 330 361 331
f 331 361 362
f 331 362 332
f 332 362 363
f 332 363 333
f 333 363 364
f 333 364 334
f 334 364 365
f 334 365 335
f 335 365 366
f 335 366 336
f 336 366 367
f 336 367 337
f 337 367 368
f 337 368 338
f 338 368 369
f 338 369 339
f 339 369 370
f 339 370 340
f 340 370 371
f 340 371 341
f 341 371 372
f 342 373 343
f 343 373 374
f 343 374 344
f 344 374 375
f 344 375 345
f 345 375 376
f 345 376 346
f 346 376 377
f 346 377 347
f 347 377 378
f 347 378 348
f 348 378 379
f 348 379 349
f 349 379 380
f 349 380 350
f 350 380 381
f 350 381 351
f 351 381 382
f 351 382 352
f 352 382 383
f 352 383 353
f 353 383 384
f 353 384 354
f 354 384 385
f 354 385 355
f 355 385 386
f 355 386 356
f 356 386 387
f 356 387 357
f 357 387 388
f 357 388 358
f 358 388 389
f 358 389 359
f 359 389 390
f 359 390 360
f 360 390 391
f 360 391 361
f 361 391 392
f 361 392 362
f 362 392 393
f 362 393 363
f 363 393 394
f 363 394 364
f 364 394 395
f 364 395 365
f 365 395 396
f 365 396 366
f 366 396 397
f 366 397 367
f 367 397 398
f 367 398 368
f 368 398 399
f 368 399 369
f 369 399 400
f 369 400 370
f 370 400 401
f 370 401 371
f 371 401 402
f 371 402 372
f 372 402 403
f 373 404 374
f 374 404 405
f 374 405 375
f 375 405 406
f 375 406 376
f 376 406 407
f 376 407 377
f 377 407 408
f 377 408 378
f 378 408 409
f 378 409 379
f 379 409 410
f 379 410 380
f 380 410 411
f 380 411 381
f 381 411 412
f 381 412 382
f 382 412 413
f 382 413 383
f 383 413 414
f 383 414 384
f 384 414 415
f 384 415 385
f 385 415 416
f 385 416 386
f 386 416 417
f 386 417 387
f 387 417 418
f 387 418 388
f 388 418 419
f 388 419 389
f 389 419 420
f 389 420 390
f 390 420 421
f 390 421 391
f 391 421 422
f 391 422 392
f 392 422 423
f 392 423 393
f 393 423 424
f 393 424 394
f 394 424 425
f 394 425 395
f 395 425 426
f 395 426 396
f 396 426 427
f 396 427 397
f 397 427 428
f 397 428 398
f 398 428 429
f 398 429 399
f 399 429 430
f 399 430 400
f 400 430 431
f 400 431 401
f 401 431 432
f 401 432 402
f 402 432 433
f 402 433 403
f 403 433 434
f 404 435 405
f 405 435 436
f 405 436 406
f 406 436 437
f 406 437 407
f 407 437 438
f 407 438 408
f 408 438 439
f 408 439 409
f 409 439 440
f 409 440 410
f 410 440 441
f 410 441 411
f 411 441 442
f 411 442 412
f 412 442 443
f 412 443 413
f 413 443 444
f 413 444 414
f 414 444 445
f 414 445 415
f 415 445 446
f 415 446 416
f 416 446 447
f 416 447 417
f 417 447 448
f 417 448 418
f 418 448 449
f 418 449 419
f 419 449 450
f 419 450 420
f 420 450 451
f 420 451 421
f 421 451 452
f 421 452 422
f 422 452 453
f 422 453 423
f 423 453 454
f 423 454 424
f 424 454 455
f 424 455 425
f 425 455 456
f 425 456 426
f 426 456 457
f 426 457 427
f 427 457 458
f 427 458 428
f 428 458 459
f 428 459 429
f 429 459 460
f 429 460 430
f 430 460 461
f 430 461 431
f 431 461 462
f 431 462 432
f 432 462 463
f 432 463 433
f 433 463 464
f 433 464 434
f 434 464 465
f 435 466 436
f 436 466 467
f 436 467 437
f 437 467 468
f 437 468 438
f 438 468 469
f 438 469 439
f 439 469 470
f 439 470 440
f 440 470 471
f 440 471 441
f 441 471 472
f 441 472 442
f 442 472 473
f 442 473 443
f 443 473 474
f 443 474 444
f 444 474 475
f 444 475 445
f 445 475 476
f 445 476 446
f 446 476 477
f 446 477 447
f 447 477 478
f 447 478 448
f 448 478 479
f 448 479 449
f 449 479 480
f 449 480 450
f 450 480 481
f 450 481 451
f 451 481 482
f 451 482 452
f 452 482 483
f 452 483 453
f 453 483 484
f 453 484 454
f 454 484 485
f 454 485 455
f 455 485 486
f 455 486 456
f 456 486 487
f 456 487 457
f 457 487 488
f 457 488 458
f 458 488 489
f 458 489 459
f 459 489 490
f 459 490 460
f 460 490 491
f 460 491 461
f 461 491 492
f 461 492 462
f 462 492 493
f 462 493 463
f 463 493 494
f 463 494 464
f 464 494 495
f 464 495 465
f 465 495 496
f 466 497 467
f 467 497 498
f 467 498 468
f 468 498 499
f 468 499 469
f 469 499 500
f 469 500 470
f 470 500 501
f 470 501 471
f 471 501 502
f 471 502 472
f 472 502 503
f 472 503 473
f 473 503 504
f 473 504 474
f 474 504 505
f 474 505 475
f 475 505 506
f 475 506 476
f 476 506 507
f 476 507 477
f 477 507 508
f 477 508 478
f 478 508 509
f 478 509 479
f 479 509 510
f 479 510 480
f 480 510 511
f 480 511 481
f 481 511 512
f 481 512 482
f 482 512 513
f 482 513 483
f 483 513 514
f 483 514 484
f 484 514 515
f 484 515 485
f 485 515 516
f 485 516 486
f 486 516 517
f 486 517 487
f 487 517 518
f 487 518 488
f 488 518 519
f 488 519 489
f 489 519 520
f 489 520 490
f 490 520 521
f 490 521 491
f 491 521 522
f 491 522 492
f 492 522 523
f 492 523 493
f 493 523 524
f 493 524 494
f 494 524 525
f 494 525 495
f 495 525 526
f 495 526 496
f 496 526 527
f 497 528 498
f 498 528 529
f 498 529 499
f 499 529 530
f 499 530 500
f 500 530 531
f 500 531 501
f 501 531 532
f 501 532 502
f 502 532 533
f 502 533 503
f 503 533 534
f 503 534 504
f 504 534 535
f 504 535 505
f 505 535 536
f 505 536 506
f 506 536 537
f 506 537 507
f 507 537 538
f 507 538 508
f 508 538 539
f 508 539 509
f 509 539 540
f 509 540 510
f 510 540 541
f 510 541 511
f 511 541 542
f 511 542 512
f 512 542 543
f 512 543 513
f 513 543 544
f 513 544 514
f 514 544 545
f 514 545 515
f 515 545 546
f 515 546 516
f 516 546 547
f 516 547 517
f 517 547 548
f 517 548 518
f 518 548 549
f 518 549 519
f 519 549 550
f 519 550 520
f 520 550 551
f 520 551 521
f 521 551 552
f 521 552 522
f 522 552 553
f 522 553 523
f 523 553 554
f 523 554 524
f 524 554 555
f 524 555 525
f 525 555 556
f 525 556 526
f 526 556 557
f 526 557 527
f 527 557 558
f 528 559 529
f 529 559 560
f 529 560 530
f 530 560 561
f 530 561 531
f 531 561 562
f 531 562 532
f 532 562 563
f 532 563 533
f 533 563 564
f 533 564 534
f 534 564 565
f 534 565 535
f 535 565 566
f 535 566 536
f 536 566 567
f 536 567 537
f 537 567 568
f 537 568 538
f 538 568 569
f 538 569 539
f 539 569 570
f 539 570 540
f 540 570 571
f 540 571 541
f 541 571 572
f 541 572 542
f 542 572 573
f 542 573 543
f 543 573 574
f 543 574 544
f 544 574 575
f 544 575 545
f 545 575 576
f 545 576 546
f 546 576 577
f 546 577 547
f 547 577 578
f 547 578 548
f 548 578 579
f 548 579 549
f 549 579 580
f 549 580 550
f 550 580 581
f 550 581 551
f 551 581 582
f 551 582 552
f 552 582 583
f 552 583 553
f 553 583 584
f 553 584 554
f 554 584 585
f 554 585 555
f 555 585 586
f 555 586 556
f 556 586 587
f 556 587 557
f 557 587 588
f 557 588 558
f 558 588 589
f 559 590 560
f 560 590 591
f 560 591 561
f 561 591 592
f 561 592 562
f 562 592 593
f 562 593 563
f 563 593 594
f 563 594 564
f 564 594 595
f 564 595 565
f 565 595 596
f 565 596 566
f 566 596 597
f 566 597 567
f 567 597 598
f 567 598 568
f 568 598 599
f 568 599 569
f 569 599 600
f 569 600 570
f 570 600 601
f 570 601 571
f 571 601 602
f 571 602 572
f 572 602 603
f 572 603 573
f 573 603 604
f 573 604 574
f 574 604 605
f 574 605 575
f 575 605 606
f 575 606 576
f 576 606 607
f 576 607 577
f 577 607 608
f 577 608 578
f 578 608 609
f 578 609 579
f 579 609 610
f 579 610 580
f 580 610 611
f 580 611 581
f 581 611 612
f 581 612 582
f 582 612 613
f 582 613 583
f 583 613 614
f 583 614 584
f 584 614 615
f 584 615 585
f 585 615 616
f 585 616 586
f 586 616 617
f 586 617 587
f 587 617 618
f 587 618 588
f 588 618 619
f 588 619 589
f 589 619 620
f 590 621 591
f 591 621 622
f 591 622 592
f 592 622 623
f 592 623 593
f 593 623 624
f 593 624 594
f 594 624 625
f 594 625 595
f 595 625 626
f 595 626 596
f 596 626 627
f 596 627 597
f 597 627 628
f 597 628 598
f 598 628 629
f 598 629 599
f 599 629 630
f 599 630 600
f 600 630 631
f 600 631 601
f 601 631 632
f 601 632 602
f 602 632 633
f 602 633 603
f 603 633 634
f 603 634 604
f 604 634 635
f 604 635 605
f 605 635 636
f 605 636 606
f 606 636 637
f 606 637 607
f 607 637 638
f 607 638 608
f 608 638 639
f 608 639 609
f 609 639 640
f 609 640 610
f 610 640 641
f 610 641 611
f 611 641 642
f 611 642 612
f 612 642 643
f 612 643 613
f 613 643 644
f 613 644 614
f 614 644 645
f 614 645 615
f 615 645 646
f 615 646 616
f 616 646 647
f 616 647 617
f 617 647 648
f 617 648 618
f 618 648 649
f 618 649 619
f 619 649 650
f 619 650 620
f 620 650 651
f 621 652 622
f 622 652 653
f 622 653 623
f 623 653 654
f 623 654 624
f 624 654 655
f 624 655 625
f 625 655 656
f 625 656 626
f 626 656 657
f 626 657 627
f 627 657 658
f 627 658 628
f 628 658 659
f 628 659 629
f 629 659 660
f 629 660 630
f 630 660 661
f 630 661 631
f 631 661 662
f 631 662 632
f 632 662 663
f 632 663 633
f 633 663 664
f 633 664 634
f 634 664 665
f 634 665 635
f 635 665 666
f 635 666 636
f 636 666 667
f 636 667 637
f 637 667 668
f 637 668 638
f 638 668 669
f 638 669 639
f 639 669 670
f 639 670 640
f 640 670 671
f 640 671 641
f 641 671 672
f 641 672 642
f 642 672 673
f 642 673 643
f 643 673 674
f 643 674 644
f 644 674 675
f 644 675 645
f 645 675 676
f 645 676 646
f 646 676 677
f 646 677 647
f 647 677 678
f 647 678 648
f 648 678 679
f 648 679 649
f 649 679 680
f 649 680 650
f 650 680 681
f 650 681 651
f 651 681 682
f 652 683 653
f 653 683 684
f 653 684 654
f 654 684 685
f 654 685 655
f 655 685 686
f 655 686 656
f 656 686 687
f 656 687 657
f 657 687 688
f 657 688 658
f 658 688 689
f 658 689 659
f 659 689 690
f 659 690 660
f 660 690 691
f 660 691 661
f 661 691 692
f 661 692 662
f 662 692 693
f 662 693 663
f 663 693 694
f 663 694 664
f 664 694 695
f 664 695 665
f 665 695 696
f 665 696 666
f 666 696 697
f 666 697 667
f 667 697 698
f 667 698 668
f 668 698 699
f 668 699 669
f 669 699 700
f 669 700 670
f 670 700 701
f 670 701 671
f 671 701 702
f 671 702 672
f 672 702 703
f 672 703 673
f 673 703 704
f 673 704 674
f 674 704 705
f 674 705 675
f 675 705 706
f 675 706 676
f 676 706 707
f 676 707 677
f 677 707 708
f 677 708 678
f 678 708 709
f 678 709 679
f 679 709 710
f 679 710 680
f 680 710 711
f 680 711 681
f 681 711 712
f 681 712 682
f 682 712 713
f 683 714 684
f 684 714 715
f 684 715 685
f 685 715 716
f 685 716 686
f 686 716 717
f 686 717 687
f 687 717 718
f 687 718 688
f 688 718 719
f 688 719 689
f 689 719 720
f 689 720 690
f 690 720 721
f 690 721 691
f 691 721 722
f 691 722 692
f 692 722 723
f 692 723 693
f 693 723 724
f 693 724 694
f 694 724 725
f 694 725 695
f 695 725 726
f 695 726 696
f 696 726 727
f 696 727 697
f 697 727 728
f 697 728 698
f 698 728 729
f 698 729 699
f 699 729 730
f 699 730 700
f 700 730 731
f 700 731 701
f 701 731 732
f 701 732 702
f 702 732 733
f 702 733 703
f 703 733 734
f 703 734 704
f 704 734 735
f 704 735 705
f 705 735 736
f 705 736 706
f 706 736 737
f 706 737 707
f 707 737 738
f 707 738 708
f 708 738 739
f 708 739 709
f 709 739 740
f 709 740 710
f 710 740 741
f 710 741 711
f 711 741 742
f 711 742 712
f 712 742 743
f 712 743 713
f 713 743 744
f 714 745 715
f 715 745 746
f 715 746 716
f 716 746 747
f 716 747 717
f 717 747 748
f 717 748 718
f 718 748 749
f 718 749 719
f 719 749 750
f 719 750 720
f 720 750 751
f 720 751 721
f 721 751 752
f 721 752 722
f 722 752 753
f 722 753 723
f 723 753 754
f 723 754 724
f 724 754 755
f 724 755 725
f 725 755 756
f 725 756 726
f 726 756 757
f 726 757 727
f 727 757 758
f 727 758 728
f 728 758 759
f 728 759 729
f 729 759 760
f 729 760 730
f 730 760 761
f 730 761 731
f 731 761 762
f 731 762 732
f 732 762 763
f 732 763 733
f 733 763 764
f 733 764 734
f 734 764 765
f 734 765 735
f 735 765 766
f 735 766 736
f 736 766 767
f 736 767 737
f 737 767 768
f 737 768 738
f 738 768 769
f 738 769 739
f 739 769 770
f 739 770 740
f 740 770 771
f 740 771 741
f 741 771 772
f 741 772 742
f 742 772 773
f 742 773 743
f 743 773 774
f 743 774 744
f 744 774 775
f 745 776 746
f 746 776 777
f 746 777 747
f 747 777 778
f 747 778 748
f 748 778 779
f 748 779 749
f 749 779 780
f 749 780 750
f 750 780 781
f 750 781 751
f 751 781 782
f 751 782 752
f 752 782 783
f 752 783 753
f 753 783 784
f 753 784 754
f 754 784 785
f 754 785 755
f 755 785 786
f 755 786 756
f 756 786 787
f 756 787 757
f 757 787 788
f 757 788 758
f 758 788 789
f 758 789 759
f 759 789 790
f 759 790 760
f 760 790 791
f 760 791 761
f 761 791 792
f 761 792 762
f 762 792 793
f 762 793 763
f 763 793 794
f 763 794 764
f 764 794 795
f 764 795 765
f 765 795 796
f 765 796 766
f 766 796 797
f 766 797 767
f 767 797 798
f 767 798 768
f 768 798 799
f 768 799 769
f 769 799 800
f 769 800 770
f 770 800 801
f 770 801 771
f 771 801 802
f 771 802 772
f 772 802 803
f 772 803 773
f 773 803 804
f 773 804 774
f 774 804 805
f 774 805 775
f 775 805 806
f 776 807 777
f 777 807 808
f 777 808 778
f 778 808 809
f 778 809 779
f 779 809 810
f 779 810 780
f 780 810 811
f 780 811 781
f 781 811 812
f 781 812 782
f 782 812 813
f 782 813 783
f 783 813 814
f 783 814 784
f 784 814 815
f 784 815 785
f 785 815 816
f 785 816 786
f 786 816 817
f 786 817 787
f 787 817 818
f 787 818 788
f 788 818 819
f 788 819 789
f 789 819 820
f 789 820 790
f 790 820 821
f 790 821 791
f 791 821 822
f 791 822 792
f 792 822 823
f 792 823 793
f 793 823 824
f 793 824 794
f 794 824 825
f 794 825 795
f 795 825 826
f 795 826 796
f 796 826 827
f 796 827 797
f 797 827 828
f 797 828 798
f 798 828 829
f 798 829 799
f 799 829 830
f 799 830 800
f 800 830 831
f 800 831 801
f 801 831 832
f 801 832 802
f 802 832 833
f 802 833 803
f 803 833 834
f 803 834 804
f 804 834 835
f 804 835 805
f 805 835 836
f 805 836 806
f 806 836 837
f 807 838 808
f 808 838 839
f 808 839 809
f 809 839 840
f 809 840 810
f 810 840 841
f 810 841 811
f 811 841 842
f 811 842 812
f 812 842 843
f 812 843 813
f 813 843 844
f 813 844 814
f 814 844 845
f 814 845 815
f 815 845 846
f 815 846 816
f 816 846 847
f 816 847 817
f 817 847 848
f 817 848 818
f 818 848 849
f 818 849 819
f 819 849 850
f 819 850 820
f 820 850 851
f 820 851 821
f 821 851 852
f 821 852 822
f 822 852 853
f 822 853 823
f 823 853 854
f 823 854 824
f 824 854 855
f 824 855 825
f 825 855 856
f 825 856 826
f 826 856 857
f 826 857 827
f 827 857 858
f 827 858 828
f 828 858 859
f 828 859 829
f 829 859 860
f 829 860 830
f 830 860 861
f 830 861 831
f 831 861 862
f 831 862 832
f 832 862 863
f 832 863 833
f 833 863 864
f 833 864 834
f 834 864 865
f 834 865 835
f 835 865 866
f 835 866 836
f 836 866 867
f 836 867 837
f 837 867 868
f 838 869 839
f 839 869 870
f 839 870 840
f 840 870 871
f 840 871 841
f 841 871 872
f 841 872 842
f 842 872 873
f 842 873 843
f 843 873 874
f 843 874 844
f 844 874 875
f 844 875 845
f 845 875 876
f 845 876 846
f 846 876 877
f 846 877 847
f 847 877 878
f 847 878 848
f 848 878 879
f 848 879 849
f 849 879 880
f 849 880 850
f 850 880 881
f 850 881 851
f 851 881 882
f 851 882 852
f 852 882 883
f 852 883 853
f 853 883 884
f 853 884 854
f 854 884 885
f 854 885 855
f 855 885 886
f 855 886 856
f 856 886 887
f 856 887 857
f 857 887 888
f 857 888 858
f 858 888 889
f 858 889 859
f 859 889 890
f 859 890 860
f 860 890 891
f 860 891 861
f 861 891 892
f 861 892 862
f 862 892 893
f 862 893 863
f 863 893 894
f 863 894 864
f 864 894 895
f 864 895 865
f 865 895 896
f 865 896 866
f 866 896 897
f 866 897 867
f 867 897 898
f 867 898 868
f 868 898 899
f 869 900 870
f 870 900 901
f 870 901 871
f 871 901 902
f 871 902 872
f 872 902 903
f 872 903 873
f 873 903 904
f 873 904 874
f 874 904 905
f 874 905 875
f 875 905 906
f 875 906 876
f 876 906 907
f 876 907 877
f 877 907 908
f 877 908 878
f 878 908 909
f 878 909 879
f 879 909 910
f 879 910 880
f 880 910 911
f 880 911 881
f 881 911 912
f 881 912 882
f 882 912 913
f 882 913 883
f 883 913 914
f 883 914 884
f 884 914 915
f 884 915 885
f 885 915 916
f 885 916 886
f 886 916 917
f 886 917 887
f 887 917 918
f 887 918 888
f 888 918 919
f 888 919 889
f 889 919 920
f 889 920 890
f 890 920 921
f 890 921 891
f 891 921 922
f 891 922 892
f 892 922 923
f 892 923 893
f 893 923 924
f 893 924 894
f 894 924 925
f 894 925 895
f 895 925 926
f 895 926 896
f 896 926 927
f 896 927 897
f 897 927 928
f 897 928 898
f 898 928 929
f 898 929 899
f 899 929 930
f 900 931 901
f 901 931 932
f 901 932 902
f 902 932 933
f 902 933 903
f 903 933 934
f 903 934 904
f 904 934 935
f 904 935 905
f 905 935 936
f 905 936 906
f 906 936 937
f 906 937 907
f 907 937 938
f 907 938 908
f 908 938 939
f 908 939 909
f 909 939 940
f 909 940 910
f 910 940 941
f 910 941 911
f 911 941 942
f 911 942 912
f 912 942 943
f 912 943 913
f 913 943 944
f 913 944 914
f 914 944 945
f 914 945 915
f 915 945 946
f 915 946 916
f 916 946 947
f 916 947 917
f 917 947 948
f 917 948 918
f 918 948 949
f 918 949 919
f 919 949 950
f 919 950 920
f 920 950 951
f 920 951 921
f 921 951 952
f 921 952 922
f 922 952 953
f 922 953 923
f 923 953 954
f 923 954 924
f 924 954 955
f 924 955 925
f 925 955 956
f 925 956 926
f 926 956 957
f 926 957 927
f 927 957 958
f 927 958 928
f 928 958 959
f 928 959 929
f 929 959 960
f 929 960 930
f 930 960 961
